<?xml version="1.0" encoding="iso-8859-1"?>
<!-- Generator: Adobe Illustrator 16.0.0, SVG Export Plug-In . SVG Version: 6.00 Build 0)  -->
<!DOCTYPE svg PUBLIC "-//W3C//DTD SVG 1.1//EN" "http://www.w3.org/Graphics/SVG/1.1/DTD/svg11.dtd">
<svg version="1.1" id="Capa_1" xmlns="http://www.w3.org/2000/svg" xmlns:xlink="http://www.w3.org/1999/xlink" x="0px" y="0px"
	 width="517.968px" height="517.968px" viewBox="0 0 517.968 517.968" style="enable-background:new 0 0 517.968 517.968;"
	 xml:space="preserve">
<g>
	<path fill="#2196F3" d="M71.949,266.084l96.129,50.671c-1.03,0.334-2.09,0.602-3.159,0.814l-52.726,9.899
		c-15.311,2.879-30.074-7.212-32.955-22.534L71.949,266.084z M517.805,312.97v-21.299h-28.234v28.477l-76.522-0.011l-38.589-38.589
		l-1.716,0.065l35.5-6.664l-1.125-6.009l18.022-3.382l0.569-121.949l-40.383,9.3l-1.041-5.59L0,219.484l193.216,95.836
		l147.404-27.671l60.728,60.728h88.387v25.981h28.233V312.97H517.805z"/>
</g>
<g>
</g>
<g>
</g>
<g>
</g>
<g>
</g>
<g>
</g>
<g>
</g>
<g>
</g>
<g>
</g>
<g>
</g>
<g>
</g>
<g>
</g>
<g>
</g>
<g>
</g>
<g>
</g>
<g>
</g>
</svg>
